<?xml version="1.0" standalone="no"?>
<!DOCTYPE svg PUBLIC "-//W3C//DTD SVG 20010904//EN"
 "http://www.w3.org/TR/2001/REC-SVG-20010904/DTD/svg10.dtd">
<svg version="1.0" xmlns="http://www.w3.org/2000/svg"
 width="200.000000pt" height="200.000000pt" viewBox="0 0 200.000000 200.000000"
 preserveAspectRatio="xMidYMid meet">
<metadata>
Created by potrace 1.11, written by Peter Selinger 2001-2013
</metadata>
<g transform="translate(0.000000,200.000000) scale(0.100000,-0.100000)"
fill="#000000" stroke="none">
<path d="M1489 1819 c-170 -40 -345 -139 -531 -299 -51 -43 -95 -76 -98 -71
-13 18 -140 117 -219 170 -180 120 -348 207 -381 196 -22 -7 -22 -7 -24 -50
-2 -25 -6 -30 -25 -27 -34 3 -51 -15 -51 -57 0 -34 -2 -36 -32 -36 l-33 0 1
-130 c1 -120 10 -433 19 -685 2 -58 7 -184 10 -280 4 -96 10 -178 13 -182 4
-4 48 -16 97 -28 146 -34 396 -141 604 -260 l54 -31 170 56 c165 55 490 149
669 195 48 13 89 29 92 36 6 16 18 668 20 1069 l1 260 -42 3 c-41 3 -43 4 -43
36 0 37 -13 52 -50 58 -18 2 -24 9 -25 29 -1 14 -5 31 -9 38 -10 16 -94 12
-187 -10z m111 -53 c0 -3 -26 -12 -57 -21 -81 -23 -234 -84 -315 -127 -10 -5
-18 -6 -18 -3 0 6 103 60 180 94 65 29 210 68 210 57z m-1203 -92 c84 -45 289
-179 299 -196 4 -7 -1 -6 -12 3 -27 23 -227 141 -301 178 -58 29 -86 51 -64
51 5 0 40 -16 78 -36z m1283 -5 c0 -5 -4 -10 -10 -10 -5 -1 -13 -2 -17 -3 -5
-1 -26 -5 -48 -10 -74 -14 -226 -67 -323 -112 -109 -49 -99 -36 17 25 105 55
216 94 306 108 17 3 31 6 32 7 7 7 43 3 43 -5z m-1367 -65 c68 -35 247 -135
247 -139 0 -2 -51 20 -112 50 -62 29 -134 62 -160 73 -27 12 -48 26 -48 31 0
17 16 13 73 -15z m1471 -336 c-3 -189 -7 -344 -9 -346 -2 -2 -28 -5 -60 -7
-54 -4 -56 -4 -49 18 3 12 15 37 26 55 11 18 18 35 15 38 -2 3 -28 -4 -58 -15
-29 -11 -55 -19 -57 -16 -2 2 0 29 5 59 6 31 7 56 4 56 -3 0 -16 -8 -28 -18
-17 -14 -25 -38 -38 -127 -10 -60 -18 -114 -19 -120 -1 -5 -11 -65 -21 -132
-11 -68 -22 -123 -25 -123 -3 0 4 64 16 143 25 159 35 230 39 267 1 14 5 39 8
55 4 17 9 48 12 70 3 22 12 85 21 140 8 55 17 118 19 140 3 22 8 52 11 68 3
15 3 27 0 27 -4 0 -53 -11 -110 -25 -128 -30 -238 -72 -278 -105 l-31 -26 16
-79 c9 -44 18 -93 21 -110 19 -114 83 -471 97 -543 8 -42 14 -52 27 -47 34 13
82 16 101 6 14 -8 21 -8 24 2 4 8 6 7 6 -3 1 -12 -14 -15 -78 -16 l-79 0 -12
60 c-7 34 -14 70 -16 81 -2 11 -8 43 -14 70 -6 28 -12 61 -15 75 -35 178 -48
247 -48 258 -1 22 -24 12 -24 -10 -1 -98 -1 -98 -28 -88 -14 6 -37 15 -52 21
-21 8 -24 12 -14 19 17 10 21 58 10 141 -14 98 -19 119 -34 119 -18 0 -82 -29
-118 -54 l-29 -19 7 -91 c4 -50 8 -104 9 -121 2 -38 22 -42 72 -16 21 12 44
21 50 21 10 0 27 -57 29 -94 0 -5 -28 -9 -63 -7 l-63 2 36 -50 36 -50 -38 -10
c-21 -5 -50 -13 -64 -16 l-26 -7 -2 94 c-3 138 -10 269 -16 304 -5 29 -1 34
72 86 254 181 460 274 736 331 4 1 27 3 52 5 l45 3 -6 -343z m-1324 173 c223
-112 397 -225 379 -247 -9 -12 -8 -134 6 -419 2 -49 7 -178 10 -286 4 -107 8
-210 9 -228 1 -18 -1 -34 -6 -37 -4 -3 -8 25 -9 63 -1 75 -3 116 -13 273 -3
58 -9 148 -11 200 -25 458 -23 441 -53 467 -63 56 -399 236 -564 303 -32 13
-58 29 -58 36 0 16 136 -39 310 -125z m1036 -93 c-3 -29 -8 -64 -11 -78 -2
-13 -7 -42 -10 -65 -3 -22 -12 -80 -20 -130 -8 -49 -16 -110 -20 -135 -3 -25
-8 -56 -10 -70 -3 -14 -7 -43 -10 -65 -2 -22 -8 -60 -12 -85 -4 -25 -6 -48 -5
-52 1 -5 -2 -8 -7 -8 -5 0 -12 21 -16 48 -5 26 -9 52 -11 57 -1 6 -4 26 -8 45
-5 35 -42 237 -50 275 -2 11 -11 66 -21 123 -20 123 -25 116 105 157 47 15 90
28 95 30 6 2 12 4 14 4 2 1 1 -23 -3 -51z m-441 -140 c3 -24 7 -63 8 -88 2
-43 0 -45 -41 -68 -24 -13 -45 -23 -46 -21 -2 2 -6 43 -10 91 l-6 87 37 20
c21 11 41 20 45 21 4 0 9 -19 13 -42z m723 -356 l0 -59 -44 10 c-44 10 -44 10
-25 31 10 12 30 33 42 48 13 15 25 28 25 28 1 0 2 -26 2 -58z m-804 -117 c22
-17 17 -27 -29 -54 l-35 -20 -1 32 c0 18 -2 44 -3 59 -2 26 -1 26 24 12 14 -9
33 -22 44 -29z m802 -21 c-1 -26 -5 -46 -11 -46 -12 0 -65 35 -65 43 0 3 66
46 76 49 0 0 0 -21 0 -46z m-803 -97 l28 -12 -44 -43 -44 -43 -2 55 c-2 62 6
67 62 43z m798 1 c1 -7 1 -33 1 -58 -1 -25 -1 -77 -1 -116 l-1 -71 -87 -23
c-173 -45 -470 -132 -610 -178 l-143 -48 -1 31 c0 16 -2 57 -4 90 -1 33 -4
105 -6 160 l-4 100 58 5 c32 3 60 4 62 2 2 -2 -10 -28 -26 -58 -17 -30 -26
-54 -21 -54 5 0 29 7 52 15 48 17 74 19 66 6 -3 -4 -8 -32 -12 -61 l-6 -53 53
41 c29 22 55 40 56 38 3 -3 11 -63 13 -96 1 -23 5 -21 48 28 l48 53 24 -50
c13 -28 26 -51 30 -51 4 0 15 25 25 55 11 30 24 55 30 55 6 0 26 -16 45 -35
39 -40 50 -34 50 32 0 23 4 44 9 48 5 3 33 -4 61 -15 48 -19 51 -19 46 -3 -3
10 -10 38 -15 61 l-9 44 64 -5 64 -4 -15 24 c-8 12 -22 34 -31 48 -20 30 -19
30 26 43 49 14 60 14 61 0z m-337 -100 c30 -42 -25 -87 -83 -67 -37 13 -46 35
-26 65 21 33 87 34 109 2z m-564 -318 c0 -5 -4 -10 -10 -10 -5 0 -10 5 -10 10
0 6 5 10 10 10 6 0 10 -4 10 -10z m-3 -52 c-3 -7 -5 -2 -5 12 0 14 2 19 5 13
2 -7 2 -19 0 -25z"/>
</g>
</svg>
